<?xml version="1.0" standalone="no"?>
<!DOCTYPE svg PUBLIC "-//W3C//DTD SVG 20010904//EN"
 "http://www.w3.org/TR/2001/REC-SVG-20010904/DTD/svg10.dtd">
<svg version="1.0" xmlns="http://www.w3.org/2000/svg"
 width="512.000000pt" height="512.000000pt" viewBox="0 0 512.000000 512.000000"
 preserveAspectRatio="xMidYMid meet">

<g transform="translate(0.000000,512.000000) scale(0.100000,-0.100000)"
fill="#000000" stroke="none">
<path d="M2315 5109 c-702 -73 -1328 -415 -1765 -965 -283 -356 -465 -788
-532 -1264 -17 -122 -17 -515 0 -635 84 -592 335 -1101 739 -1502 396 -391
880 -632 1443 -719 145 -23 537 -26 680 -6 482 68 930 261 1295 557 195 158
413 404 550 620 72 114 193 360 240 489 108 293 164 649 151 956 -23 550 -189
1023 -514 1460 -104 140 -359 397 -492 497 -355 265 -750 430 -1190 498 -126
19 -477 28 -605 14z m205 -1309 l32 -13 -35 -18 c-21 -11 -37 -28 -41 -44 -8
-32 -22 -32 -30 0 -4 15 -21 32 -42 43 l-36 19 31 13 c18 7 39 26 48 43 l15
31 13 -31 c8 -18 26 -35 45 -43z m-615 -184 c14 -37 24 -47 61 -61 24 -9 44
-20 44 -25 0 -5 -19 -16 -43 -25 -38 -14 -47 -24 -66 -68 l-21 -52 -24 51
c-20 43 -31 54 -70 70 -25 10 -46 21 -46 24 0 3 21 14 46 24 39 16 50 27 68
66 11 27 24 46 28 44 3 -2 14 -24 23 -48z m1871 -231 l29 -12 -33 -17 c-19
-10 -39 -31 -46 -47 l-13 -31 -13 32 c-7 17 -27 38 -44 47 l-31 16 32 15 c18
8 37 28 44 45 l12 29 17 -32 c9 -18 30 -38 46 -45z m-1683 -390 l62 -27 -62
-28 c-59 -27 -64 -32 -91 -92 l-29 -63 -30 65 c-28 61 -33 66 -86 88 -31 13
-57 27 -57 30 1 4 28 19 60 34 56 25 62 31 87 89 l27 61 29 -65 c27 -61 31
-66 90 -92z m1499 -289 l63 -29 -63 -29 c-60 -27 -65 -32 -92 -91 l-28 -62
-27 61 c-26 59 -31 64 -92 92 l-64 30 63 27 c60 26 64 30 92 92 l29 64 28 -63
c26 -60 31 -64 91 -92z m38 -535 c7 -17 22 -32 36 -35 31 -8 31 -20 -1 -34
-14 -7 -30 -23 -37 -37 -6 -14 -14 -25 -18 -25 -4 0 -12 11 -18 25 -7 14 -23
30 -37 37 -32 14 -32 26 1 34 16 4 30 17 36 35 13 37 22 37 38 0z"/>
</g>
</svg>
